<svg width="827" height="620" viewBox="0 0 827 620" fill="none" xmlns="http://www.w3.org/2000/svg">
<g clip-path="url(#clip0_8_548)">
<path d="M571.868 181.177C514.797 127.64 447.934 113.819 430.267 110.999C442.173 78.8631 460.563 31.091 465.143 24.0221C468.105 23.6498 471.089 23.4789 474.073 23.5108C487.055 23.5108 514.85 26.208 555.099 44.312C613.226 70.4545 628.675 99.8581 631.74 107.051L571.868 181.177Z" fill="white"/>
<path d="M474.073 27.0365C486.773 27.0365 514.005 29.6983 553.602 47.5203C606.111 71.1771 623.073 97.6193 627.582 106.557L571.534 176.029C543.81 151.061 511.44 131.808 476.275 119.373C462.871 114.544 449.099 110.813 435.093 108.214C448.251 72.8342 462.553 36.4146 467.362 27.3185C468.93 27.1775 471.185 27.0365 474.108 27.0365H474.073ZM474.108 19.9852C470.529 19.9101 466.952 20.158 463.417 20.7256C459.295 22.1006 425.475 113.873 425.475 113.873C425.475 113.873 505.744 122.069 572.239 186.359L635.65 107.702C635.65 107.702 625.081 71.9881 556.386 41.1036C516.171 22.9996 488.147 19.95 473.968 19.95L474.108 19.9852Z" fill="#A0C6F4"/>
<path d="M437.224 121.011C437.224 121.011 516.154 128.98 564.769 173.667" stroke="white" stroke-linecap="round" stroke-linejoin="round"/>
<path d="M505.356 117.152L534.808 59.8601L565.07 119.602L505.356 117.152Z" fill="#A0C6F4"/>
<path d="M511.081 116.34L540.532 59.0491L570.793 118.79L511.081 116.34Z" stroke="white" stroke-linecap="round" stroke-linejoin="round"/>
<path d="M483.462 16.4949C483.462 16.4949 571.991 24.5333 626.948 89.8982" stroke="white" stroke-linecap="round" stroke-linejoin="round"/>
<path d="M528.677 270.375C523.817 266.848 520.629 264.399 520.629 264.399C521.967 262.636 543.262 239.913 555.592 221.615C555.592 221.615 530.651 271.838 528.677 270.375Z" fill="white"/>
<path d="M226.961 104.9C229.339 108.866 230.378 107.279 237.23 106.662C244.082 106.045 253.841 111.14 257.258 119.584C260.675 128.027 259.636 129.333 257.786 130.389C255.937 131.447 242.779 133.034 242.25 135.678" stroke="white" stroke-linecap="round" stroke-linejoin="round"/>
<path d="M404.461 534.073L398.314 523.689L376.542 560.021L382.25 564.428L404.461 534.073Z" fill="#F9865F"/>
<path d="M259.864 444.082C259.864 444.082 248.574 425.731 253.418 416.723L289.422 420.583L259.864 444.082Z" fill="#F9865F"/>
<path d="M259.864 444.082L262.014 449.053L255.373 475.001C254.953 476.604 254.994 478.293 255.489 479.873C255.984 481.454 256.915 482.863 258.174 483.939L291.096 435.233C292.604 432.99 293.265 430.284 292.958 427.599C292.652 424.914 291.398 422.426 289.422 420.583L282.059 413.744L259.864 444.082Z" fill="black"/>
<path d="M242.251 135.748C252.555 135.502 265.625 134.849 263.001 126.935C260.375 119.02 250.671 99.4879 228.388 105.358C228.388 105.358 220.55 111.898 230.343 123.674C240.137 135.449 242.251 135.748 242.251 135.748Z" fill="#2A1E33"/>
<path d="M294.425 420.936C294.425 420.936 276.81 368.934 291.712 346.105C304.042 327.261 344.167 357.898 349.663 361.971L378.392 310.109C378.392 310.109 371.769 300.801 355.493 291.687C339.217 282.574 271.948 255.285 240.33 305.207C228.652 323.647 228.476 402.815 250.899 433.153L294.425 420.936Z" fill="#3B3B5F"/>
<path d="M294.425 420.936C294.425 420.936 276.81 368.934 291.712 346.105C304.042 327.26 344.167 357.898 349.663 361.971" stroke="white" stroke-linecap="round" stroke-linejoin="round"/>
<path d="M378.392 310.108C365.322 323.876 326.588 390.933 317.869 422.928C306.226 465.8 310.612 501.356 374.657 571.004L405.606 525.876C405.606 525.876 383.834 492.805 387.991 461.622C393.875 416.512 425.95 372.776 442.173 345.029L378.392 310.108Z" fill="#3B3B5F"/>
<path d="M383.307 315.925L434.793 356.382L450.188 332.972L383.307 315.925Z" fill="#8C3C6C"/>
<path d="M679.087 273.406C687.119 275.134 693.237 278.196 697.441 282.59C701.651 286.998 699.748 289.289 698.217 290.629C696.684 291.968 690.747 290.435 685.586 285.852C680.426 281.268 679.087 273.406 679.087 273.406Z" fill="#FF8A66"/>
<path d="M520.629 264.399C521.967 262.636 543.262 239.913 555.592 221.615C555.592 221.615 592.847 263.394 596.898 264.752C598.395 265.244 607.467 265.121 618.882 265.016C638.046 264.804 663.533 264.611 669.17 267.448C678.154 271.925 683.543 274.182 685.78 280.476C688.018 286.768 688.916 290.876 683.543 291.246C677.255 291.704 673.221 283.613 673.221 283.613C667.298 286.797 661.131 289.502 654.78 291.704C654.78 291.704 607.026 310.25 575.11 301.277C566.425 298.826 520.629 264.399 520.629 264.399Z" fill="#F9865F"/>
<path d="M231.171 97.5136C227.085 99.0825 224.584 100.951 226.961 104.9C229.339 108.848 230.378 107.28 237.23 106.663C244.082 106.045 253.841 111.14 257.258 119.584C260.675 128.028 259.636 129.333 257.786 130.39C255.937 131.447 242.779 133.035 242.251 135.679C241.722 138.323 247.535 146.097 259.706 145.585L262.595 145.057C262.595 145.057 288.083 169.965 291.782 173.649C295.481 177.334 322.572 195.72 337.579 199.457C348.923 202.295 371.928 198.646 385.737 195.931C392.448 194.609 397.011 193.534 397.011 193.534C397.011 193.534 386.636 174.83 384.521 146.097C384.521 146.097 359.721 150.081 343.233 153.711C343.233 153.711 304.764 132.241 286.058 122.74C286.058 122.74 269.712 102.714 262.066 100.07C254.422 97.4255 236.702 95.4159 231.171 97.5136Z" fill="#F9865F"/>
<path d="M385.666 196.019C392.377 194.697 396.94 193.622 396.94 193.622C396.94 193.622 384.381 177.757 382.285 149.058C382.285 149.058 376.613 155.175 378.374 171.445C380.594 192 385.666 196.019 385.666 196.019Z" fill="white"/>
<path d="M381.756 145.833C381.756 145.833 382.109 180.965 391.514 195.614L394.879 194.257C394.879 194.257 350.578 246.136 336.24 280.035C333.898 285.587 428.241 345.894 442.173 345.047C442.173 345.047 488.147 274.835 503.824 254.016L520.734 267.132C520.734 267.132 553.867 233.532 555.645 221.616C555.645 221.616 523.64 182.64 497.518 171.217C471.395 159.794 447.81 140.262 419.68 140.879C395.337 141.25 381.756 145.833 381.756 145.833Z" fill="#471C36"/>
<path d="M520.663 267.131L503.772 254.016L506.466 246.682L520.663 267.131Z" fill="white"/>
<path d="M546.38 128.239C543.421 137.459 534.878 164.095 525.348 167.374C515.819 170.653 505.973 166.545 505.973 166.545L495.827 171.727C494.7 175.129 486.685 178.056 476.346 178.462C468.684 178.761 464.015 168.907 466.288 161.785C467.327 158.506 471.219 142.395 471.219 142.395C471.219 142.395 479.428 112.145 487.072 105.904C494.718 99.664 501.728 93.4588 521.896 101.621C552.616 114.101 546.38 128.239 546.38 128.239Z" fill="#F9865F"/>
<path d="M485.135 129.561C483.779 135.202 477.913 146.52 474.055 144.475C470.198 142.431 468.859 137.247 471.572 127.287C474.285 117.327 476.556 94.7285 484.236 90.6564C491.916 86.5843 495.316 91.3263 495.316 91.3263C495.316 91.3263 491.916 74.8264 501.869 72.5524C501.869 72.5524 505.251 70.9834 503.895 82.2831C505.212 79.176 507.529 76.5985 510.478 74.9601C513.427 73.3216 516.838 72.7162 520.17 73.2399C532.501 74.5972 536.886 92.0138 536.886 92.0138C537.243 90.5752 538.097 89.3089 539.296 88.4382C540.493 87.5674 541.961 87.1482 543.439 87.2542C549.093 87.2542 557.689 95.6275 555.645 104.882C555.645 104.882 570.106 100.352 577.786 111.934C585.466 123.515 584.568 136.137 566.038 141.108C546.662 146.308 546.839 123.692 543.896 120.747C540.955 117.803 537.802 114.419 526.952 118.492C516.101 122.563 504.792 110.576 504.792 110.576C504.792 110.576 503.031 125.048 501.182 126.441C499.332 127.834 495.756 129.615 496.655 122.827C497.553 116.041 498.698 116.711 498.011 114.913C497.324 113.115 494.277 107.385 487.848 112.427C480.626 117.962 485.135 129.561 485.135 129.561Z" fill="#2A1E33"/>
<path d="M488.218 132.064C483.902 128.539 480.907 122.052 484.695 115.671C488.482 109.289 494.7 108.425 496.585 110.84C498.469 113.256 499.209 117.327 497.429 122.158" stroke="#2A1E33" stroke-linecap="round" stroke-linejoin="round"/>
<path d="M382.267 564.429L384.416 569.382L377.776 595.331C377.355 596.933 377.396 598.622 377.892 600.202C378.387 601.783 379.317 603.193 380.576 604.269L413.462 555.561C414.972 553.32 415.632 550.614 415.325 547.929C415.018 545.243 413.764 542.756 411.789 540.913L404.426 534.073L382.267 564.429Z" fill="black"/>
<path d="M495.316 91.3261C495.316 91.3261 492.779 83.1289 485.224 80.9607" stroke="#2A1E33" stroke-linecap="round" stroke-linejoin="round"/>
<path d="M335.113 277.549L426.321 150.045" stroke="white" stroke-linecap="round" stroke-linejoin="round"/>
<path d="M463.927 158.965C460.634 163.248 459.137 181.653 474.267 182.834C482.896 183.693 491.575 181.785 499.051 177.386" stroke="white" stroke-linecap="round" stroke-linejoin="round"/>
<path d="M261.979 100.158C261.979 100.158 272.406 113.961 274.045 118.879" stroke="white" stroke-linecap="round" stroke-linejoin="round"/>
<path d="M652.384 285.305C652.384 285.305 659.429 291.035 673.221 283.542C678.241 280.845 674.666 274.482 668.29 276.068C661.913 277.655 654.374 275.275 654.374 275.275" stroke="white" stroke-linecap="round" stroke-linejoin="round"/>
<path d="M681.483 274.2C681.483 274.2 688.159 282.009 687.982 286.645" stroke="white" stroke-linecap="round" stroke-linejoin="round"/>
<path d="M583.123 273.354C583.123 273.354 589.165 265.298 596.898 264.751" stroke="white" stroke-linecap="round" stroke-linejoin="round"/>
<path d="M328.332 166.81C328.332 166.81 331.855 155.81 343.163 153.8" stroke="white" stroke-linecap="round" stroke-linejoin="round"/>
<path d="M358.963 333.713L345.471 359.467C345.471 359.467 301.012 434.757 316.108 483.409" stroke="white" stroke-linecap="round" stroke-linejoin="round"/>
<path d="M398.349 420.089L442.086 345.047C442.086 345.047 499.421 261.825 505.285 250.173L525.525 212.713" stroke="white" stroke-linecap="round" stroke-linejoin="round"/>
<path d="M341.243 285.553C341.243 285.553 419.046 342.315 442.103 345.047" stroke="white" stroke-linecap="round" stroke-linejoin="round"/>
<path d="M381.756 145.833C381.756 145.833 381.756 181.459 391.286 196.055" stroke="white" stroke-linecap="round" stroke-linejoin="round"/>
<path d="M553.091 215.974C550.643 230.641 518.179 261.473 518.179 261.473" stroke="white" stroke-linecap="round" stroke-linejoin="round"/>
<path d="M310.788 398.813C313.337 398.813 315.403 396.745 315.403 394.194C315.403 391.643 313.337 389.576 310.788 389.576C308.239 389.576 306.173 391.643 306.173 394.194C306.173 396.745 308.239 398.813 310.788 398.813Z" fill="white"/>
<path d="M744.173 493.528L741.618 475.847L756.679 485.878L748.805 487.587L744.173 493.528Z" stroke="white" stroke-linecap="round" stroke-linejoin="round"/>
<path d="M244.364 191.683C215.811 166.457 168.623 229.337 341.243 429.485C440.852 544.949 519.149 555.297 529.717 515.123C548.74 443.059 480.045 424.849 505.62 453.072C542.787 494.11 648.49 502.783 727.28 464.495C805.012 426.7 757.224 368.017 752.398 364.579" stroke="white" stroke-linecap="round" stroke-linejoin="round"/>
<path d="M728.584 468.743C731.132 468.743 733.198 466.676 733.198 464.125C733.198 461.574 731.132 459.506 728.584 459.506C726.034 459.506 723.968 461.574 723.968 464.125C723.968 466.676 726.034 468.743 728.584 468.743Z" fill="white"/>
<path d="M661.367 501.866L798.284 424.62" stroke="white" stroke-linecap="round" stroke-linejoin="round"/>
<path d="M247.218 200.039C249.767 200.039 251.833 197.97 251.833 195.42C251.833 192.869 249.767 190.801 247.218 190.801C244.669 190.801 242.603 192.869 242.603 195.42C242.603 197.97 244.669 200.039 247.218 200.039Z" fill="white"/>
<path d="M365.005 109.888C370.482 109.888 374.922 105.445 374.922 99.9637C374.922 94.4825 370.482 90.0391 365.005 90.0391C359.528 90.0391 355.089 94.4825 355.089 99.9637C355.089 105.445 359.528 109.888 365.005 109.888Z" fill="#FF6D66"/>
<path d="M185.197 24.3221C184.333 24.3186 183.487 24.572 182.766 25.0503C182.045 25.5285 181.483 26.2101 181.149 27.0086C180.816 27.807 180.726 28.6866 180.893 29.5358C181.06 30.385 181.474 31.1656 182.084 31.7788C182.695 32.392 183.473 32.8101 184.321 32.9803C185.169 33.1504 186.049 33.0648 186.847 32.7345C187.647 32.4041 188.331 31.8437 188.811 31.1245C189.291 30.4051 189.548 29.5592 189.548 28.6938C189.548 27.5374 189.09 26.4281 188.275 25.6087C187.459 24.7893 186.353 24.3267 185.197 24.3221Z" fill="#A0C6F4"/>
<path d="M768.92 565.821C771.323 565.821 773.271 563.871 773.271 561.467C773.271 559.062 771.323 557.113 768.92 557.113C766.517 557.113 764.569 559.062 764.569 561.467C764.569 563.871 766.517 565.821 768.92 565.821Z" fill="#FAD8B0"/>
<path d="M691.082 364.561L644.211 342.579C643.384 342.171 642.691 341.536 642.209 340.749C641.729 339.962 641.48 339.056 641.494 338.134C641.507 337.21 641.78 336.312 642.283 335.538C642.786 334.765 643.497 334.15 644.334 333.765L731.455 295.406C732.065 295.136 732.725 294.997 733.392 294.997C734.059 294.997 734.719 295.136 735.329 295.406L795.219 321.108L691.082 364.561Z" fill="#2A1E33"/>
<path d="M688.246 292.286C688.352 311.677 691.135 364.562 691.135 364.562L795.272 321.038L792.929 247.441C792.898 246.397 792.609 245.377 792.09 244.471C791.57 243.566 790.834 242.804 789.948 242.253C789.062 241.701 788.053 241.378 787.012 241.31C785.971 241.244 784.929 241.436 783.98 241.87L694.341 282.767C692.512 283.591 690.962 284.93 689.88 286.62C688.798 288.31 688.23 290.279 688.246 292.286Z" fill="#121212"/>
<path d="M691.082 364.561L795.219 321.038L792.876 247.44C792.876 247.44 792.189 239.402 783.928 241.87" stroke="white" stroke-linecap="round" stroke-linejoin="round"/>
<path d="M741.477 311.659L748.506 295.036" stroke="white" stroke-linecap="round" stroke-linejoin="round"/>
<path d="M748.506 311.659L755.534 295.036" stroke="white" stroke-linecap="round" stroke-linejoin="round"/>
<path d="M203.957 493.053C206.359 493.053 208.307 491.103 208.307 488.698C208.307 486.294 206.359 484.344 203.957 484.344C201.554 484.344 199.606 486.294 199.606 488.698C199.606 491.103 201.554 493.053 203.957 493.053Z" fill="#FF6D66"/>
<path d="M571.269 516.375C574.615 516.375 577.328 513.659 577.328 510.311C577.328 506.961 574.615 504.246 571.269 504.246C567.923 504.246 565.21 506.961 565.21 510.311C565.21 513.659 567.923 516.375 571.269 516.375Z" fill="#FF6D66"/>
<path d="M249.12 553.376C266.368 561.308 285.149 565.34 304.13 565.186C304.482 565.189 304.83 565.266 305.15 565.413C305.471 565.559 305.757 565.771 305.99 566.036C306.223 566.3 306.397 566.611 306.501 566.947C306.606 567.284 306.638 567.64 306.596 567.989L302.792 598.168C302.716 598.693 302.474 599.178 302.104 599.556C301.734 599.933 301.252 600.182 300.73 600.266C293.015 601.729 261.979 605.996 238.692 586.164C238.338 585.86 238.077 585.462 237.94 585.016C237.803 584.569 237.795 584.094 237.918 583.643L245.597 554.857C245.703 554.507 245.886 554.186 246.13 553.915C246.374 553.644 246.676 553.43 247.012 553.289C247.348 553.147 247.711 553.082 248.076 553.097C248.44 553.113 248.796 553.207 249.12 553.376Z" fill="#FFF7DC"/>
<path d="M251.85 562.189C251.85 562.189 265.272 581.069 270.063 583.784C274.855 586.499 300.713 571.057 300.713 571.057" stroke="white" stroke-linecap="round" stroke-linejoin="round"/>
<path d="M282.729 581.176L296.837 595.683" stroke="white" stroke-linecap="round" stroke-linejoin="round"/>
<path d="M263.124 578.373L246.619 582.867" stroke="white" stroke-linecap="round" stroke-linejoin="round"/>
<path d="M681.095 196.213H665.331V211.991H681.095V196.213Z" fill="#FFE1C0"/>
<path d="M667.462 408.966L672.147 417.094L676.833 425.22H667.462H658.109L662.776 417.094L667.462 408.966Z" fill="#A0C6F4"/>
<path d="M288.664 49.2126L289.898 12.3346C289.757 8.80903 291.165 7.80422 293.28 7.32827C303.285 5.12475 333.792 -1.66205 366.785 8.12154C371.064 9.39076 370.924 11.6472 370.853 13.692L369.673 48.8424C369.587 49.4993 369.365 50.1308 369.02 50.6964C368.675 51.2619 368.215 51.749 367.672 52.1259C367.127 52.503 366.51 52.7616 365.86 52.8853C365.208 53.009 364.54 52.9948 363.896 52.844C351.904 51.4077 339.825 50.8186 327.751 51.0812C316.137 51.0316 304.54 51.9693 293.086 53.884C289.809 54.501 288.577 52.1036 288.664 49.2126Z" stroke="white" stroke-linecap="round" stroke-linejoin="round"/>
<path d="M299.796 43.9241L319.067 21.3601L340.381 42.4257C333.018 39.9401 299.796 43.9241 299.796 43.9241Z" stroke="white" stroke-linecap="round" stroke-linejoin="round"/>
<path d="M330.851 31.7255L346.422 19.2449L359.545 28.623L360.038 43.2719L340.363 42.32" stroke="white" stroke-linecap="round" stroke-linejoin="round"/>
<path d="M308.12 19.5934C308.299 17.8207 306.757 16.2133 304.676 16.0029C302.596 15.7923 300.764 17.0586 300.584 18.8313C300.405 20.6039 301.948 22.2115 304.028 22.4219C306.109 22.6324 307.941 21.366 308.12 19.5934Z" stroke="white" stroke-linecap="round" stroke-linejoin="round"/>
<path d="M661.032 528.185L673.944 552.054C675.3 554.186 674.825 555.403 673.644 556.496C668.113 561.625 651.257 577.244 626.596 583.343C623.408 584.137 622.651 582.638 621.946 581.316L609.616 558.559C609.43 558.107 609.339 557.623 609.349 557.136C609.359 556.648 609.471 556.167 609.676 555.725C609.881 555.283 610.176 554.888 610.542 554.565C610.908 554.243 611.335 554 611.8 553.852C619.953 550.31 627.842 546.186 635.404 541.512C642.852 537.265 649.924 532.388 656.54 526.934C658.302 525.171 660.063 526.317 661.032 528.185Z" stroke="white" stroke-linecap="round" stroke-linejoin="round"/>
<path d="M655.96 535.747L652.102 557.237L630.753 551.789C636.301 550.59 655.96 535.747 655.96 535.747Z" stroke="white" stroke-linecap="round" stroke-linejoin="round"/>
<path d="M640.723 554.998L635.456 568.712L623.655 567.637L617.894 558.505L630.736 551.79" stroke="white" stroke-linecap="round" stroke-linejoin="round"/>
<path d="M663.12 555.367C664.518 554.729 665.212 553.247 664.671 552.061C664.128 550.875 662.557 550.432 661.159 551.071C659.761 551.71 659.066 553.19 659.608 554.377C660.15 555.563 661.722 556.006 663.12 555.367Z" stroke="white" stroke-linecap="round" stroke-linejoin="round"/>
<path d="M598.149 120.659L650.623 160.852C650.895 161.062 651.207 161.216 651.54 161.304C651.873 161.393 652.22 161.414 652.561 161.366C652.902 161.318 653.231 161.203 653.527 161.026C653.823 160.851 654.081 160.617 654.286 160.34L662.212 149.586C662.602 149.051 662.769 148.385 662.681 147.728C662.592 147.072 662.254 146.475 661.737 146.061L610.004 104.618C609.729 104.398 609.414 104.238 609.076 104.144C608.736 104.051 608.383 104.028 608.036 104.076C607.688 104.123 607.354 104.241 607.053 104.422C606.753 104.604 606.491 104.844 606.287 105.129L597.621 117.116C597.231 117.659 597.069 118.334 597.168 118.995C597.266 119.656 597.618 120.253 598.149 120.659Z" fill="white" stroke="white" stroke-linecap="round" stroke-linejoin="round"/>
<path d="M602.024 118.861L614.741 127.799L622.263 118.826L609.527 108.196L602.024 118.861Z" fill="#FF6D66"/>
<path d="M619.533 131.289L632.285 141.407L639.12 132.999L626.279 122.581L619.533 131.289Z" fill="#FAD8B0"/>
<path d="M636.566 145.285L649.301 154.223L655.36 146.432L643.312 136.331L636.566 145.285Z" fill="#A0C6F4"/>
<path d="M702.867 64.4607L714.826 164.941C714.881 165.469 715.041 165.982 715.297 166.448C715.553 166.914 715.9 167.323 716.317 167.653C716.735 167.981 717.213 168.223 717.726 168.363C718.238 168.502 718.775 168.538 719.3 168.466L739.557 165.681C740.574 165.545 741.497 165.018 742.131 164.211C742.766 163.405 743.062 162.383 742.957 161.362L733.145 60.283C733.092 59.749 732.931 59.2315 732.67 58.7617C732.411 58.292 732.059 57.8799 731.636 57.5502C731.213 57.2206 730.728 56.9804 730.208 56.8441C729.69 56.7078 729.149 56.6783 728.619 56.7574L706.231 60.0361C705.202 60.1851 704.273 60.7322 703.644 61.5598C703.015 62.3874 702.735 63.4292 702.867 64.4607Z" fill="white" stroke="white" stroke-linecap="round" stroke-linejoin="round"/>
<path d="M708.978 66.8055L712.765 90.3214L730.627 88.9993L728.671 63.6677L708.978 66.8055Z" fill="#FF6D66"/>
<path d="M714.052 99.3115L716.571 124.114L733.093 122.634L730.803 97.4253L714.052 99.3115Z" fill="#91BA83"/>
<path d="M716.888 132.981L720.674 156.497L735.699 154.84L733.885 130.813L716.888 132.981Z" fill="#FAD8B0"/>
<path d="M676.762 85.8614L709.877 183.292C710.012 183.688 710.223 184.055 710.5 184.368C710.779 184.683 711.116 184.939 711.493 185.121C711.87 185.303 712.279 185.407 712.697 185.429C713.115 185.452 713.534 185.39 713.929 185.248L734.678 177.775C735.444 177.495 736.073 176.929 736.434 176.198C736.795 175.465 736.86 174.622 736.616 173.843L705.526 75.4609C705.395 75.0524 705.183 74.6746 704.903 74.3503C704.623 74.026 704.28 73.7619 703.895 73.5742C703.509 73.3863 703.09 73.2786 702.662 73.2575C702.234 73.2364 701.806 73.3023 701.405 73.4513L678.647 81.8951C677.874 82.1742 677.241 82.7475 676.889 83.4903C676.536 84.233 676.49 85.0852 676.762 85.8614Z" fill="white" stroke="white" stroke-linecap="round" stroke-linejoin="round"/>
<path d="M683.473 87.6417L692.068 109.87L709.26 104.847L702.091 80.467L683.473 87.6417Z" fill="#A0C6F4"/>
<path d="M695.204 118.385L702.813 142.131L718.666 137.229L711.198 113.044L695.204 118.385Z" fill="#F9865F"/>
<path d="M704.962 150.733L713.558 172.944L727.914 168.184L721.15 145.057L704.962 150.733Z" fill="#FAD8B0"/>
<path d="M427.166 208.923H259.918C254.586 208.923 250.265 213.248 250.265 218.583V241.236C250.265 246.57 254.586 250.896 259.918 250.896H427.166C432.497 250.896 436.819 246.57 436.819 241.236V218.583C436.819 213.248 432.497 208.923 427.166 208.923Z" fill="#7595EC"/>
<path d="M364.494 221.28H273.322C271.562 221.28 270.134 222.708 270.134 224.471C270.134 226.234 271.562 227.662 273.322 227.662H364.494C366.255 227.662 367.682 226.234 367.682 224.471C367.682 222.708 366.255 221.28 364.494 221.28Z" fill="white"/>
<path d="M271.049 235.946H426.039" stroke="white" stroke-linecap="round" stroke-linejoin="round"/>
<path d="M191.746 129.948L194.383 132.838C194.919 133.424 195.199 134.2 195.164 134.995C195.128 135.788 194.778 136.536 194.192 137.072L189.874 141.019C189.288 141.555 188.513 141.836 187.72 141.8C186.926 141.764 186.179 141.414 185.643 140.827L183.006 137.938L191.746 129.948Z" fill="#91BA83"/>
<path d="M167.997 124.332L180.436 137.959C181.078 138.663 182.17 138.713 182.874 138.069L191.47 130.21C192.175 129.567 192.224 128.475 191.581 127.77L179.143 114.143C178.5 113.439 177.408 113.389 176.704 114.033L168.108 121.892C167.404 122.535 167.354 123.627 167.997 124.332Z" stroke="white" stroke-linecap="round" stroke-linejoin="round"/>
<path d="M155.006 186.254H139.383V200.532H155.006V186.254Z" fill="#FF6D66"/>
<path d="M139.383 177.068V186.253H130.047" stroke="white" stroke-linecap="round" stroke-linejoin="round"/>
<path d="M669.787 25.0093H654.162V39.288H669.787V25.0093Z" fill="#FAD8B0"/>
<path d="M654.162 15.8252V25.0095H644.827" stroke="white" stroke-linecap="round" stroke-linejoin="round"/>
<path d="M231.277 113.273C69.2246 46.0746 -55.4149 175.5 249.93 373.675C273.974 389.294 310.858 394.828 310.858 394.828" stroke="white" stroke-linecap="round" stroke-linejoin="round"/>
<path d="M82.2767 122.404C84.8255 122.404 86.8917 120.337 86.8917 117.786C86.8917 115.236 84.8255 113.167 82.2767 113.167C79.7279 113.167 77.6618 115.236 77.6618 117.786C77.6618 120.337 79.7279 122.404 82.2767 122.404Z" fill="white"/>
<path d="M52.896 92.4191L57.9513 87.5537L69.5592 94.2172L75.4071 112.251L57.5638 104.776L52.896 92.4191Z" stroke="white" stroke-linecap="round" stroke-linejoin="round"/>
<path d="M57.9513 87.5536L52.896 92.4189L50.0601 88.9814L54.904 84.3276L57.9513 87.5536Z" stroke="white" stroke-linecap="round" stroke-linejoin="round"/>
<path d="M75.4072 112.251L63.7993 99.5056" stroke="white" stroke-linecap="round" stroke-linejoin="round"/>
<path d="M103.449 435.867L116.025 500.808C116.093 501.146 116.227 501.467 116.417 501.753C116.609 502.038 116.856 502.283 117.142 502.473C117.429 502.663 117.75 502.795 118.087 502.86C118.424 502.925 118.772 502.923 119.108 502.854L132.178 500.068C132.833 499.928 133.407 499.539 133.782 498.984C134.156 498.428 134.302 497.749 134.186 497.089L123.019 431.742C122.959 431.397 122.828 431.067 122.636 430.774C122.446 430.48 122.196 430.228 121.905 430.034C121.613 429.84 121.286 429.706 120.941 429.642C120.597 429.579 120.243 429.585 119.901 429.662L105.475 432.87C105.145 432.934 104.831 433.061 104.551 433.246C104.27 433.432 104.029 433.669 103.841 433.948C103.653 434.226 103.521 434.539 103.454 434.868C103.387 435.198 103.385 435.537 103.449 435.867Z" fill="white" stroke="white" stroke-linecap="round" stroke-linejoin="round"/>
<path d="M107.589 437.101L111.181 452.243L122.737 450.534L120.271 434.122L107.589 437.101Z" fill="#FF6D66"/>
<path d="M112.45 458.043L115.268 474.067L125.96 472.322L123.265 455.998L112.45 458.043Z" fill="#FAD8B0"/>
<path d="M115.902 479.832L119.478 494.974L129.184 493.159L126.877 477.611L115.902 479.832Z" fill="#A0C6F4"/>
<path d="M464.033 598.592L517.229 584.348L519.272 590.113L465.46 604.092L464.033 598.592Z" stroke="white" stroke-linecap="round" stroke-linejoin="round"/>
<path d="M456.635 591.153L458.185 595.983" stroke="white" stroke-linecap="round" stroke-linejoin="round"/>
<path d="M455.138 594.307L459.63 592.757" stroke="white" stroke-linecap="round" stroke-linejoin="round"/>
<path d="M454.063 609.609L456.952 618.741" stroke="white" stroke-linecap="round" stroke-linejoin="round"/>
<path d="M451.598 615.391L459.594 612.853" stroke="white" stroke-linecap="round" stroke-linejoin="round"/>
<path d="M441.892 594.555L445.679 606.647" stroke="white" stroke-linecap="round" stroke-linejoin="round"/>
<path d="M438.14 602.082L449.342 598.503" stroke="white" stroke-linecap="round" stroke-linejoin="round"/>
<path d="M76.0412 20.1087L42.3801 4.89566L43.7717 1.05273L77.6441 16.6536L76.0412 20.1087Z" stroke="white" stroke-width="0.67" stroke-linecap="round" stroke-linejoin="round"/>
<path d="M76.7282 27.1247L77.9788 23.9517" stroke="white" stroke-width="0.67" stroke-linecap="round" stroke-linejoin="round"/>
<path d="M78.8418 26.1198L75.8475 25.0093" stroke="white" stroke-width="0.67" stroke-linecap="round" stroke-linejoin="round"/>
<path d="M85.8877 18.6279L88.2656 12.6697" stroke="white" stroke-width="0.67" stroke-linecap="round" stroke-linejoin="round"/>
<path d="M89.6219 16.6712L84.408 14.5911" stroke="white" stroke-width="0.67" stroke-linecap="round" stroke-linejoin="round"/>
<path d="M85.8172 31.6199L88.9878 23.7402" stroke="white" stroke-width="0.67" stroke-linecap="round" stroke-linejoin="round"/>
<path d="M90.9606 29.3105L83.633 26.4019" stroke="white" stroke-width="0.67" stroke-linecap="round" stroke-linejoin="round"/>
<path d="M201.897 304.714C178.152 287.615 154.83 261.032 165.064 233.725C165.064 233.725 181.428 222.814 207.339 236.458L233.268 250.173L201.897 304.714Z" fill="url(#paint0_linear_8_548)"/>
<path d="M191.134 418.644C180.442 413.585 134.856 389.822 126.735 349.225C119.69 314.18 146.534 266.884 159.957 245.977C159.093 273.706 186.924 297.187 200.346 306.847C211.767 315.252 224.369 321.917 237.741 326.626L191.134 418.644Z" fill="white"/>
<path d="M157.913 254.227C160.819 272.666 174.875 291.758 198.796 308.998C209.589 316.97 221.449 323.384 234.024 328.054L189.989 415.137C176.531 408.438 136.775 385.769 129.36 348.714C123.212 317.918 144.068 277.074 157.949 254.227H157.913ZM165.1 233.726C165.1 233.726 114.635 301.982 124.182 349.754C133.729 397.526 192.384 422.03 192.384 422.03L241.476 325.075C226.133 319.452 216.164 314.869 201.931 304.609C178.187 287.51 154.866 260.926 165.1 233.62V233.726Z" fill="url(#paint1_linear_8_548)"/>
<path d="M151.8 273.388C153.281 282.267 156.787 290.685 162.048 297.986C167.308 305.288 174.182 311.276 182.133 315.484" stroke="white" stroke-linecap="round" stroke-linejoin="round"/>
<path d="M196.788 325.286L224.178 339.971" stroke="white" stroke-linecap="round" stroke-linejoin="round"/>
<path d="M155.711 312.558C155.711 312.558 164.518 332.143 192.877 344.871" stroke="white" stroke-linecap="round" stroke-linejoin="round"/>
<path d="M133.2 315.485C133.2 315.485 134.187 336.057 147.873 342.915" stroke="white" stroke-linecap="round" stroke-linejoin="round"/>
<path d="M164.518 244.021C164.518 244.021 161.981 270.463 201.895 304.715" stroke="white" stroke-linecap="round" stroke-linejoin="round"/>
<path d="M179.191 248.921C179.191 248.921 191.908 247.934 210.492 261.649" stroke="white" stroke-linecap="round" stroke-linejoin="round"/>
<path d="M119.302 333.219C118.492 346.317 120.13 393.788 188.826 424.074" stroke="white" stroke-linecap="round" stroke-linejoin="round"/>
<path d="M558.024 306.812L528.889 365.249C528.889 365.249 548.653 372.529 533.204 395.217C533.204 395.217 569.737 410.377 593.64 371.014C617.543 331.649 558.024 306.812 558.024 306.812Z" fill="url(#paint2_linear_8_548)"/>
<path d="M491.335 485.419C476.592 485.419 461.038 479.391 445.062 467.492L499.562 377.095L531.99 397.525L532.2 397.614C537.868 399.696 543.866 400.735 549.903 400.681C560.144 400.744 570.146 397.58 578.491 391.638L538.648 459.946C538.559 460.071 521.403 485.473 491.335 485.473V485.419Z" fill="white"/>
<path d="M500.442 380.797L530.386 399.677L530.774 399.923L531.179 400.082C537.171 402.299 543.515 403.41 549.903 403.361C557.243 403.388 564.507 401.863 571.217 398.883L536.446 458.414C535.319 460.071 519.183 482.776 491.353 482.776C477.772 482.776 463.399 477.399 448.568 466.786L500.442 380.797ZM593.64 370.996C580.129 393.242 562.603 398.073 549.903 398.073C544.21 398.12 538.555 397.146 533.204 395.199L498.698 373.463L441.645 468.162C460.704 482.863 477.384 488.152 491.353 488.152C523.253 488.152 540.937 461.322 540.937 461.322L593.64 371.084V370.996Z" fill="url(#paint3_linear_8_548)"/>
<path d="M528.889 365.249C528.889 365.249 550.625 372.935 533.204 395.217" stroke="white" stroke-linecap="round" stroke-linejoin="round"/>
<path d="M498.011 371.419C498.011 371.419 527.621 398.565 544.003 398.372C560.384 398.178 579.618 394.3 590.945 374.733" stroke="white" stroke-linecap="round" stroke-linejoin="round"/>
<path d="M501.657 406.534C501.657 406.534 521.967 424.584 544.69 418.785" stroke="white" stroke-linecap="round" stroke-linejoin="round"/>
<path d="M522.988 433.505C522.988 433.505 533.645 441.49 548.546 433.927" stroke="white" stroke-linecap="round" stroke-linejoin="round"/>
<path d="M473.95 444.646C473.95 444.646 498.61 469.131 537.274 452.984" stroke="white" stroke-linecap="round" stroke-linejoin="round"/>
<path d="M487.337 420.76C487.337 420.76 497.377 427.952 503.665 430.244" stroke="white" stroke-linecap="round" stroke-linejoin="round"/>
<path d="M563.026 323.77C563.026 323.77 585.484 331.121 588.179 360.788" stroke="white" stroke-linecap="round" stroke-linejoin="round"/>
<path d="M574.316 360.419C574.316 360.419 584.656 376.442 567.183 392.448" stroke="white" stroke-linecap="round" stroke-linejoin="round"/>
<path d="M443.653 463.755C443.653 463.755 500.019 534.407 540.973 451.785" stroke="white" stroke-linecap="round" stroke-linejoin="round"/>
<path d="M36.6027 288.566H49.7431" stroke="#FF6D66" stroke-linecap="round" stroke-linejoin="round"/>
<path d="M768.92 130.319H782.061" stroke="#FF6D66" stroke-linecap="round" stroke-linejoin="round"/>
<path d="M416.369 40.0637H429.527" stroke="#FAD8B0" stroke-miterlimit="10"/>
<path d="M794.021 198.558L806.95 200.884" stroke="#FAD8B0" stroke-miterlimit="10"/>
<path d="M277.602 526.845H290.761" stroke="#A0C6F4" stroke-linecap="round" stroke-linejoin="round"/>
<path d="M822.345 367.188C824.748 367.188 826.696 365.239 826.696 362.834C826.696 360.429 824.748 358.48 822.345 358.48C819.942 358.48 817.994 360.429 817.994 362.834C817.994 365.239 819.942 367.188 822.345 367.188Z" fill="#91BA83"/>
<path d="M4.35075 158.084C6.7536 158.084 8.7015 156.135 8.7015 153.729C8.7015 151.325 6.7536 149.376 4.35075 149.376C1.9479 149.376 0 151.325 0 153.729C0 156.135 1.9479 158.084 4.35075 158.084Z" fill="#91BA83"/>
</g>
<defs>
<linearGradient id="paint0_linear_8_548" x1="158.283" y1="263.183" x2="241.625" y2="263.471" gradientUnits="userSpaceOnUse">
<stop stop-color="#AA367C"/>
<stop offset="1" stop-color="#4A2FBD"/>
</linearGradient>
<linearGradient id="paint1_linear_8_548" x1="115.757" y1="317.863" x2="255.489" y2="318.186" gradientUnits="userSpaceOnUse">
<stop stop-color="#AA367C"/>
<stop offset="1" stop-color="#4A2FBD"/>
</linearGradient>
<linearGradient id="paint2_linear_8_548" x1="524.597" y1="347.624" x2="607.628" y2="347.859" gradientUnits="userSpaceOnUse">
<stop stop-color="#AA367C"/>
<stop offset="1" stop-color="#4A2FBD"/>
</linearGradient>
<linearGradient id="paint3_linear_8_548" x1="432.381" y1="423.38" x2="611.612" y2="424.234" gradientUnits="userSpaceOnUse">
<stop stop-color="#AA367C"/>
<stop offset="1" stop-color="#4A2FBD"/>
</linearGradient>
<clipPath id="clip0_8_548">
<rect width="827" height="620" fill="white"/>
</clipPath>
</defs>
</svg>
