<svg width="868" height="868" viewBox="0 0 868 868" fill="none" xmlns="http://www.w3.org/2000/svg">
<g opacity="0.25">
<path d="M614.833 434C579.068 434 544.106 423.394 514.368 403.524C484.63 383.654 461.452 355.412 447.765 322.369C434.078 289.326 430.497 252.966 437.475 217.888C444.452 182.81 461.675 150.588 486.965 125.298C512.255 100.008 544.476 82.7855 579.554 75.808C614.633 68.8305 650.992 72.4116 684.035 86.0984C717.078 99.7853 745.32 122.963 765.191 152.701C785.061 182.439 795.667 217.401 795.667 253.167C795.609 301.109 776.539 347.071 742.638 380.972C708.738 414.872 662.776 433.942 614.833 434ZM614.833 144.667C593.374 144.667 572.397 151.03 554.554 162.952C536.711 174.874 522.804 191.82 514.592 211.645C506.38 231.471 504.232 253.287 508.418 274.334C512.605 295.381 522.938 314.714 538.112 329.888C553.286 345.062 572.619 355.395 593.666 359.582C614.713 363.768 636.529 361.62 656.354 353.408C676.18 345.195 693.126 331.289 705.048 313.446C716.97 295.603 723.333 274.626 723.333 253.167C723.333 224.391 711.902 196.793 691.554 176.446C671.207 156.098 643.609 144.667 614.833 144.667ZM434 506.333C462.612 506.333 490.582 514.818 514.372 530.714C538.163 546.61 556.705 569.204 567.655 595.638C578.604 622.073 581.469 651.16 575.887 679.223C570.305 707.286 556.527 733.063 536.295 753.295C516.063 773.527 490.286 787.305 462.223 792.887C434.16 798.469 405.073 795.604 378.638 784.654C352.204 773.705 329.61 755.163 313.714 731.372C297.818 707.582 289.333 679.612 289.333 651C289.333 612.632 304.575 575.835 331.705 548.705C358.835 521.575 395.632 506.333 434 506.333ZM434 723.333C448.306 723.333 462.291 719.091 474.186 711.143C486.081 703.195 495.353 691.898 500.827 678.681C506.302 665.463 507.734 650.92 504.943 636.888C502.152 622.857 495.263 609.969 485.147 599.853C475.031 589.737 462.143 582.847 448.112 580.056C434.08 577.265 419.536 578.698 406.319 584.173C393.102 589.647 381.805 598.918 373.857 610.814C365.909 622.709 361.667 636.694 361.667 651C361.667 670.184 369.287 688.582 382.853 702.147C396.418 715.712 414.816 723.333 434 723.333ZM72.3333 325.5C72.3333 304.041 78.6967 283.063 90.6189 265.221C102.541 247.378 119.486 233.471 139.312 225.259C159.138 217.047 180.954 214.898 202.001 219.085C223.048 223.271 242.38 233.605 257.554 248.779C272.728 263.953 283.062 283.286 287.249 304.333C291.435 325.38 289.286 347.195 281.074 367.021C272.862 386.847 258.955 403.792 241.113 415.714C223.27 427.637 202.293 434 180.833 434C152.057 434 124.46 422.569 104.112 402.221C83.7645 381.873 72.3333 354.276 72.3333 325.5ZM180.833 361.667C187.986 361.667 194.979 359.545 200.926 355.571C206.874 351.597 211.51 345.949 214.247 339.34C216.984 332.732 217.701 325.46 216.305 318.444C214.91 311.429 211.465 304.984 206.407 299.926C201.349 294.868 194.905 291.424 187.889 290.028C180.873 288.633 173.602 289.349 166.993 292.086C160.384 294.824 154.736 299.459 150.762 305.407C146.788 311.354 144.667 318.347 144.667 325.5C144.667 335.092 148.477 344.291 155.26 351.074C162.042 357.856 171.241 361.667 180.833 361.667ZM289.333 180.833C289.333 187.986 291.454 194.979 295.429 200.926C299.403 206.874 305.051 211.51 311.66 214.247C318.268 216.984 325.54 217.701 332.556 216.305C339.571 214.91 346.016 211.465 351.074 206.407C356.132 201.349 359.576 194.905 360.972 187.889C362.367 180.873 361.651 173.602 358.914 166.993C356.176 160.384 351.541 154.736 345.593 150.762C339.646 146.788 332.653 144.667 325.5 144.667C315.908 144.667 306.709 148.477 299.926 155.26C293.144 162.042 289.333 171.241 289.333 180.833ZM180.833 542.5C173.68 542.5 166.688 544.621 160.74 548.595C154.793 552.569 150.157 558.218 147.42 564.826C144.682 571.435 143.966 578.707 145.362 585.722C146.757 592.738 150.202 599.182 155.26 604.24C160.318 609.298 166.762 612.743 173.778 614.138C180.793 615.534 188.065 614.818 194.674 612.08C201.282 609.343 206.931 604.707 210.905 598.76C214.879 592.812 217 585.82 217 578.667C217 569.075 213.19 559.875 206.407 553.093C199.624 546.31 190.425 542.5 180.833 542.5ZM651 470.167C643.847 470.167 636.854 472.288 630.907 476.262C624.959 480.236 620.324 485.884 617.586 492.493C614.849 499.101 614.133 506.373 615.528 513.389C616.924 520.405 620.368 526.849 625.426 531.907C630.484 536.965 636.929 540.409 643.944 541.805C650.96 543.2 658.232 542.484 664.84 539.747C671.449 537.01 677.097 532.374 681.071 526.426C685.045 520.479 687.167 513.486 687.167 506.333C687.167 496.741 683.356 487.542 676.574 480.76C669.791 473.977 660.592 470.167 651 470.167Z" fill="white"/>
</g>
</svg>
