<svg width="37" height="37" viewBox="0 0 37 37" fill="none" xmlns="http://www.w3.org/2000/svg">
<path fill-rule="evenodd" clip-rule="evenodd" d="M14.0668 13.2561H20.6892V16.5548C21.6432 14.6576 24.0896 12.9529 27.7646 12.9529C34.8097 12.9529 36.4822 16.7296 36.4822 23.6587V36.4918H29.3498V25.2368C29.3498 21.2908 28.3958 19.0654 25.9672 19.0654C22.599 19.0654 21.1992 21.4637 21.1992 25.235V36.4918H14.0668V13.2561ZM1.83644 36.1886H8.96887V12.9529H1.83644V36.1886ZM9.99059 5.37652C9.99086 5.97435 9.87229 6.56627 9.64179 7.11788C9.41129 7.66948 9.07346 8.16978 8.64791 8.58968C7.7856 9.44668 6.6184 9.92639 5.40266 9.92344C4.18905 9.92263 3.02454 9.44414 2.16097 8.59146C1.73696 8.17013 1.40027 7.66928 1.17017 7.1176C0.940074 6.56592 0.821101 5.97426 0.820068 5.37652C0.820068 4.16935 1.30151 3.0139 2.16275 2.16157C3.02557 1.30775 4.19057 0.829056 5.40444 0.82959C6.62052 0.82959 7.78667 1.30925 8.64791 2.16157C9.50737 3.0139 9.99059 4.16935 9.99059 5.37652Z" fill="white"/>
</svg>
