<svg width="42" height="42" viewBox="0 0 42 42" fill="none" xmlns="http://www.w3.org/2000/svg">
<path d="M12.176 0.261719H29.4308C36.004 0.261719 41.3448 5.60248 41.3448 12.1757V29.4305C41.3448 32.5903 40.0896 35.6207 37.8552 37.855C35.6209 40.0893 32.5906 41.3445 29.4308 41.3445H12.176C5.60273 41.3445 0.261963 36.0038 0.261963 29.4305V12.1757C0.261963 9.01594 1.51719 5.98556 3.7515 3.75125C5.98581 1.51694 9.01619 0.261719 12.176 0.261719ZM11.7651 4.37C9.8039 4.37 7.92298 5.1491 6.53616 6.53592C5.14935 7.92273 4.37024 9.80365 4.37024 11.7649V29.8413C4.37024 33.9291 7.67741 37.2362 11.7651 37.2362H29.8416C31.8028 37.2362 33.6838 36.4571 35.0706 35.0703C36.4574 33.6835 37.2365 31.8026 37.2365 29.8413V11.7649C37.2365 7.67717 33.9293 4.37 29.8416 4.37H11.7651ZM31.5876 7.45121C32.2686 7.45121 32.9217 7.72173 33.4032 8.20327C33.8848 8.6848 34.1553 9.3379 34.1553 10.0189C34.1553 10.6999 33.8848 11.353 33.4032 11.8345C32.9217 12.316 32.2686 12.5866 31.5876 12.5866C30.9066 12.5866 30.2535 12.316 29.772 11.8345C29.2905 11.353 29.0199 10.6999 29.0199 10.0189C29.0199 9.3379 29.2905 8.6848 29.772 8.20327C30.2535 7.72173 30.9066 7.45121 31.5876 7.45121ZM20.8034 10.5324C23.5273 10.5324 26.1397 11.6145 28.0659 13.5406C29.992 15.4668 31.0741 18.0792 31.0741 20.8031C31.0741 23.5271 29.992 26.1395 28.0659 28.0656C26.1397 29.9917 23.5273 31.0738 20.8034 31.0738C18.0794 31.0738 15.467 29.9917 13.5409 28.0656C11.6148 26.1395 10.5327 23.5271 10.5327 20.8031C10.5327 18.0792 11.6148 15.4668 13.5409 13.5406C15.467 11.6145 18.0794 10.5324 20.8034 10.5324ZM20.8034 14.6407C19.169 14.6407 17.6016 15.29 16.4459 16.4456C15.2902 17.6013 14.6409 19.1687 14.6409 20.8031C14.6409 22.4375 15.2902 24.0049 16.4459 25.1606C17.6016 26.3163 19.169 26.9655 20.8034 26.9655C22.4377 26.9655 24.0052 26.3163 25.1609 25.1606C26.3165 24.0049 26.9658 22.4375 26.9658 20.8031C26.9658 19.1687 26.3165 17.6013 25.1609 16.4456C24.0052 15.29 22.4377 14.6407 20.8034 14.6407Z" fill="white"/>
</svg>
